<svg width="512" height="512" viewBox="0 0 512 512" fill="none" xmlns="http://www.w3.org/2000/svg">
<path d="M511.894 19.228C511.863 18.912 511.804 18.606 511.759 18.295C511.705 17.918 511.661 17.54 511.587 17.165C511.516 16.807 511.418 16.46 511.329 16.109C511.248 15.786 511.177 15.461 511.08 15.141C510.976 14.796 510.846 14.463 510.725 14.126C510.61 13.807 510.505 13.485 510.375 13.17C510.245 12.855 510.091 12.554 509.947 12.247C509.794 11.923 509.65 11.596 509.48 11.278C509.322 10.984 509.143 10.704 508.972 10.418C508.786 10.107 508.61 9.792 508.407 9.488C508.196 9.172 507.96 8.875 507.733 8.571C507.543 8.318 507.367 8.058 507.165 7.811C506.722 7.272 506.256 6.753 505.763 6.26C505.759 6.256 505.756 6.252 505.752 6.248C505.748 6.244 505.744 6.242 505.741 6.238C505.247 5.745 504.729 5.278 504.189 4.835C503.942 4.632 503.682 4.456 503.428 4.266C503.125 4.039 502.828 3.804 502.512 3.593C502.208 3.39 501.893 3.214 501.581 3.028C501.295 2.857 501.016 2.678 500.722 2.52C500.404 2.35 500.078 2.206 499.753 2.053C499.446 1.908 499.144 1.755 498.83 1.624C498.515 1.494 498.193 1.388 497.873 1.274C497.536 1.153 497.204 1.024 496.86 0.92C496.54 0.823 496.214 0.752 495.891 0.671C495.54 0.582 495.193 0.484 494.836 0.413C494.461 0.339 494.083 0.294 493.706 0.24C493.395 0.196 493.089 0.136 492.773 0.105C492.072 0.037 491.37 0 490.667 0H213.333C201.551 0 192 9.551 192 21.333C192 33.115 201.551 42.666 213.333 42.666H439.163L6.24801 475.582C-2.08299 483.913 -2.08299 497.421 6.24801 505.752C14.579 514.083 28.087 514.083 36.418 505.752L469.333 72.837V298.667C469.333 310.449 478.884 320 490.666 320C502.448 320 512 310.449 512 298.667V21.335C512 20.631 511.963 19.928 511.894 19.228Z" fill="white"/>
</svg>
